<?xml version="1.0" encoding="UTF-8"?>
<svg id="contacto" xmlns="http://www.w3.org/2000/svg" viewBox="0 0 655.76 984.35">
  <rect x="14" y="3.35" width="625" height="973" rx="47.57" ry="47.57" style="fill: #131224;"/>
  <text transform="translate(147.09 104.78)" style="fill: #f2f2f2; font-family: ArticulatCF-Medium, &apos;Articulat CF&apos;; font-size: 37.41px; font-weight: 500;"><tspan x="0" y="0">¡</tspan><tspan x="9.17" y="0" style="letter-spacing: 0em;">Q</tspan><tspan x="36.18" y="0">ue</tspan><tspan x="78.16" y="0" style="letter-spacing: -.02em;">r</tspan><tspan x="91.78" y="0">emos </tspan><tspan x="193.55" y="0" style="letter-spacing: -.03em;">a</tspan><tspan x="212.85" y="0" style="letter-spacing: 0em;">y</tspan><tspan x="233.32" y="0">ud</tspan><tspan x="277.06" y="0" style="letter-spacing: 0em;">a</tspan><tspan x="297.67" y="0" style="letter-spacing: .02em;">r</tspan><tspan x="312.41" y="0" style="letter-spacing: 0em;">t</tspan><tspan x="325.06" y="0">e!</tspan></text>
  <text transform="translate(177.58 144.74)" style="fill: #f2f2f2; font-family: ArticulatCF-Regular, &apos;Articulat CF&apos;; font-size: 28.91px;"><tspan x="0" y="0">Déj</tspan><tspan x="40.79" y="0" style="letter-spacing: 0em;">a</tspan><tspan x="56.49" y="0">nos tu in</tspan><tspan x="163.87" y="0" style="letter-spacing: -.02em;">f</tspan><tspan x="172.25" y="0">orm</tspan><tspan x="224.58" y="0" style="letter-spacing: 0em;">a</tspan><tspan x="239.99" y="0" style="letter-spacing: 0em;">ción</tspan></text>
  <text transform="translate(138.51 367.8)" style="fill: #f2f2f2; font-family: ArticulatCF-Regular, &apos;Articulat CF&apos;; font-size: 34.01px;"><tspan x="0" y="0" style="letter-spacing: 0em;">¿</tspan><tspan x="18.09" y="0" style="letter-spacing: 0em;">Q</tspan><tspan x="42.69" y="0" style="letter-spacing: 0em;">ué </tspan><tspan x="88.84" y="0" style="letter-spacing: 0em;">t</tspan><tspan x="100" y="0" style="letter-spacing: 0em;">e i</tspan><tspan x="133.64" y="0" style="letter-spacing: 0em;">n</tspan><tspan x="152.72" y="0" style="letter-spacing: 0em;">t</tspan><tspan x="163.88" y="0" style="letter-spacing: 0em;">e</tspan><tspan x="182.51" y="0" style="letter-spacing: 0em;">r</tspan><tspan x="194.69" y="0" style="letter-spacing: 0em;">e</tspan><tspan x="213.33" y="0" style="letter-spacing: 0em;">s</tspan><tspan x="229.76" y="0" style="letter-spacing: 0em;">a mejo</tspan><tspan x="332.28" y="0" style="letter-spacing: -.02em;">r</tspan><tspan x="344.11" y="0" style="letter-spacing: .01em;">a</tspan><tspan x="362.85" y="0" style="letter-spacing: 0em;">r</tspan><tspan x="57.75" y="34.01" style="letter-spacing: 0em;">en tu </tspan><tspan x="142.75" y="34.01" style="letter-spacing: 0em;">r</tspan><tspan x="154.93" y="34.01" style="letter-spacing: 0em;">esidencia?</tspan></text>
  <g>
    <text transform="translate(135.75 469.79)" style="fill: #7b88cf; font-family: ArticulatCF-Regular, &apos;Articulat CF&apos;; font-size: 27.21px;"><tspan x="0" y="0" style="letter-spacing: -.03em;">A</tspan><tspan x="17.74" y="0" style="letter-spacing: 0em;">gili</tspan><tspan x="49.52" y="0" style="letter-spacing: 0em;">z</tspan><tspan x="62.8" y="0" style="letter-spacing: 0em;">a</tspan><tspan x="77.58" y="0" style="letter-spacing: 0em;">r</tspan><tspan x="87.24" y="0" style="letter-spacing: 0em;"> </tspan><tspan x="93.49" y="0" style="letter-spacing: 0em;">acc</tspan><tspan x="136.84" y="0">esos</tspan></text>
    <text transform="translate(135.75 495.59)" style="fill: #f2f2f2; font-family: ArticulatCF-Regular, &apos;Articulat CF&apos;; font-size: 20.41px;"><tspan x="0" y="0">E</tspan><tspan x="11.12" y="0" style="letter-spacing: 0em;">n</tspan><tspan x="22.41" y="0">t</tspan><tspan x="29.04" y="0" style="letter-spacing: -.03em;">r</tspan><tspan x="35.98" y="0" style="letter-spacing: 0em;">a</tspan><tspan x="46.86" y="0">da y </tspan><tspan x="90.14" y="0" style="letter-spacing: 0em;">s</tspan><tspan x="99.84" y="0">alida sin </tspan><tspan x="176.41" y="0" style="letter-spacing: 0em;">c</tspan><tspan x="187.22" y="0">ompli</tspan><tspan x="236.67" y="0" style="letter-spacing: 0em;">ca</tspan><tspan x="258.36" y="0">ciones</tspan></text>
  </g>
  <g>
    <text transform="translate(135.75 543.56)" style="fill: #7b88cf; font-family: ArticulatCF-Regular, &apos;Articulat CF&apos;; font-size: 27.21px;"><tspan x="0" y="0" style="letter-spacing: -.03em;">A</tspan><tspan x="17.74" y="0">dminist</tspan><tspan x="105.52" y="0" style="letter-spacing: -.03em;">r</tspan><tspan x="114.77" y="0" style="letter-spacing: 0em;">a</tspan><tspan x="129.28" y="0">ción en un solo sis</tspan><tspan x="346.06" y="0" style="letter-spacing: 0em;">t</tspan><tspan x="354.77" y="0" style="letter-spacing: 0em;">ema</tspan></text>
    <text transform="translate(135.75 569.36)" style="fill: #f2f2f2; font-family: ArticulatCF-Regular, &apos;Articulat CF&apos;; font-size: 20.41px;"><tspan x="0" y="0" style="letter-spacing: -.1em;">T</tspan><tspan x="9.8" y="0" style="letter-spacing: 0em;">o</tspan><tspan x="21.43" y="0">do i</tspan><tspan x="53.63" y="0" style="letter-spacing: -.01em;">n</tspan><tspan x="64.92" y="0" style="letter-spacing: 0em;">t</tspan><tspan x="71.45" y="0" style="letter-spacing: 0em;">e</tspan><tspan x="82.57" y="0">g</tspan><tspan x="94.47" y="0" style="letter-spacing: -.03em;">r</tspan><tspan x="101.41" y="0" style="letter-spacing: 0em;">a</tspan><tspan x="112.28" y="0">d</tspan><tspan x="124.28" y="0" style="letter-spacing: -.02em;">o</tspan><tspan x="135.51" y="0" style="letter-spacing: 0em;">,</tspan><tspan x="139.59" y="0" xml:space="preserve"> sin </tspan><tspan x="174.24" y="0" style="letter-spacing: 0em;">ca</tspan><tspan x="195.94" y="0">os</tspan></text>
  </g>
  <g>
    <text transform="translate(135.75 617.33)" style="fill: #7b88cf; font-family: ArticulatCF-Regular, &apos;Articulat CF&apos;; font-size: 27.21px;"><tspan x="0" y="0">S</tspan><tspan x="16.68" y="0" style="letter-spacing: 0em;">e</tspan><tspan x="31.51" y="0">gurid</tspan><tspan x="93.93" y="0" style="letter-spacing: 0em;">a</tspan><tspan x="108.43" y="0">d</tspan></text>
    <text transform="translate(135.75 643.12)" style="fill: #f2f2f2; font-family: ArticulatCF-Regular, &apos;Articulat CF&apos;; font-size: 20.41px;"><tspan x="0" y="0" style="letter-spacing: -.01em;">L</tspan><tspan x="10.63" y="0">a t</tspan><tspan x="32.94" y="0" style="letter-spacing: -.03em;">r</tspan><tspan x="39.88" y="0" style="letter-spacing: 0em;">a</tspan><tspan x="50.96" y="0" style="letter-spacing: 0em;">nquilid</tspan><tspan x="109.88" y="0" style="letter-spacing: 0em;">a</tspan><tspan x="120.75" y="0">d que tú y tu </tspan><tspan x="237.89" y="0" style="letter-spacing: -.04em;">f</tspan><tspan x="243.4" y="0" style="letter-spacing: 0em;">a</tspan><tspan x="254.49" y="0" style="letter-spacing: 0em;">milia me</tspan><tspan x="329.04" y="0" style="letter-spacing: -.02em;">r</tspan><tspan x="336.18" y="0" style="letter-spacing: 0em;">e</tspan><tspan x="347.3" y="0" style="letter-spacing: 0em;">c</tspan><tspan x="358.12" y="0">en</tspan></text>
  </g>
  <g>
    <text transform="translate(135.75 691.09) scale(.93 1)" style="fill: #7b88cf; font-family: ArticulatCF-Regular, &apos;Articulat CF&apos;; font-size: 27.21px;"><tspan x="0" y="0">Visi</tspan><tspan x="42.5" y="0" style="letter-spacing: 0em;">t</tspan><tspan x="51.21" y="0">as</tspan></text>
    <text transform="translate(135.75 716.89)" style="fill: #f2f2f2; font-family: ArticulatCF-Regular, &apos;Articulat CF&apos;; font-size: 20.41px;"><tspan x="0" y="0">Un p</tspan><tspan x="41.53" y="0" style="letter-spacing: -.02em;">r</tspan><tspan x="48.67" y="0" style="letter-spacing: 0em;">o</tspan><tspan x="60.3" y="0" style="letter-spacing: 0em;">c</tspan><tspan x="71.12" y="0">eso más </tspan><tspan x="151.59" y="0" style="letter-spacing: -.03em;">r</tspan><tspan x="158.53" y="0" style="letter-spacing: 0em;">á</tspan><tspan x="169.61" y="0">pido y </tspan><tspan x="229.42" y="0" style="letter-spacing: -.01em;">ef</tspan><tspan x="246.36" y="0">icie</tspan><tspan x="276.26" y="0" style="letter-spacing: -.01em;">n</tspan><tspan x="287.55" y="0" style="letter-spacing: 0em;">t</tspan><tspan x="294.08" y="0">e p</tspan><tspan x="321.79" y="0" style="letter-spacing: 0em;">a</tspan><tspan x="332.87" y="0" style="letter-spacing: -.03em;">r</tspan><tspan x="339.81" y="0">a tus i</tspan><tspan x="392.08" y="0" style="letter-spacing: -.02em;">n</tspan><tspan x="403.16" y="0" style="letter-spacing: 0em;">v</tspan><tspan x="414.24" y="0">i</tspan><tspan x="418.22" y="0" style="letter-spacing: 0em;">ta</tspan><tspan x="435.63" y="0">dos</tspan></text>
  </g>
  <g>
    <text transform="translate(135.75 764.86) scale(.93 1)" style="fill: #7b88cf; font-family: ArticulatCF-Regular, &apos;Articulat CF&apos;; font-size: 27.21px;"><tspan x="0" y="0">E</tspan><tspan x="14.83" y="0" style="letter-spacing: 0em;">n</tspan><tspan x="29.88" y="0">t</tspan><tspan x="38.72" y="0" style="letter-spacing: -.02em;">r</tspan><tspan x="48.24" y="0" style="letter-spacing: 0em;">e</tspan><tspan x="63.07" y="0">gas / Del</tspan><tspan x="168.24" y="0" style="letter-spacing: 0em;">i</tspan><tspan x="173.41" y="0" style="letter-spacing: -.03em;">v</tspan><tspan x="187.37" y="0">ery</tspan></text>
    <text transform="translate(135.75 790.66)" style="fill: #f2f2f2; font-family: ArticulatCF-Regular, &apos;Articulat CF&apos;; font-size: 20.41px;"><tspan x="0" y="0" style="letter-spacing: 0em;">C</tspan><tspan x="13.41" y="0">o</tspan><tspan x="24.94" y="0" style="letter-spacing: -.01em;">n</tspan><tspan x="36.22" y="0">t</tspan><tspan x="42.86" y="0" style="letter-spacing: -.02em;">r</tspan><tspan x="50" y="0">ol </tspan><tspan x="70.2" y="0" style="letter-spacing: 0em;">t</tspan><tspan x="76.73" y="0" style="letter-spacing: -.01em;">o</tspan><tspan x="88" y="0" style="letter-spacing: 0em;">t</tspan><tspan x="94.53" y="0">al de tus p</tspan><tspan x="186.51" y="0" style="letter-spacing: 0em;">a</tspan><tspan x="197.39" y="0">qu</tspan><tspan x="220.88" y="0" style="letter-spacing: -.01em;">e</tspan><tspan x="231.63" y="0" style="letter-spacing: 0em;">t</tspan><tspan x="238.16" y="0">es y ser</tspan><tspan x="307.55" y="0" style="letter-spacing: 0em;">v</tspan><tspan x="318.63" y="0" style="letter-spacing: 0em;">icios</tspan></text>
  </g>
</svg>